PathFileType	4	(X/Y/Z)	C:/Users/beibeiliu/ov580/test_trc/User3\sequence.9_training_dense_left.trc
DataRate	CameraRate	NumFrames	NumMarkers	Units	OrigDataRate	OrigDataStartFrame	OrigNumFrames
120	120	23	19	mm	120	80	213
Frame#	Time	ThumbCMC			ThumbMCP			ThumbIP			ThumbTip			IndexMCP			IndexPIP			IndexTip			MiddleMCP			MiddlePIP			MiddleTip			RingMCP			RingPIP			RingTip			PinkyMCP			PinkyPIP			PinkyTip			BackHand1			BackHand2			BackHand3	
		X0	Y0	Z0	X1	Y1	Z1	X2	Y2	Z2	X3	Y3	Z3	X4	Y4	Z4	X5	Y5	Z5	X6	Y6	Z6	X7	Y7	Z7	X8	Y8	Z8	X9	Y9	Z9	X10	Y10	Z10	X11	Y11	Z11	X12	Y12	Z12	X13	Y13	Z13	X14	Y14	Z14	X15	Y15	Z15	X16	Y16	Z16	X17	Y17	Z17	X18	Y18	Z18	
79	0.658333	-223.768	18.8261	-1.3203	-203.264	25.3916	-28.8895	-185.037	23.134	-54.9499	-168.976	4.12843	-66.1288	-236.896	-14.0913	-64.8364	-233.698	-19.0623	-99.748	-215.104	-9.76906	-117.459	-210.453	-28.3381	-74.3558	-185.514	-14.0755	-88.2399	-176.732	0.944636	-53.1714	-189.85	-29.6412	-62.081	-165.141	-15.7114	-53.1458	-176.975	-4.26315	-25.4233	-181.303	-41.4513	-43.5889	-160.453	-23.1072	-38.6233	-173.789	-12.4901	-13.7234	-225.379	-43.4164	-12.3375	-232.802	-41.4836	13.664	-245.387	-14.5531	-6.61952	
80	0.666667	-225.406	15.7195	-2.3965	-206.252	26.6913	-29.0331	-189.076	17.5215	-54.8731	-171.709	2.17854	-63.969	-238.2	-20.9738	-68.1852	-228.347	-25.2548	-99.5801	-204.159	-7.66895	-109.915	-210.479	-31.86	-74.4873	-182.889	-17.9827	-87.0369	-179.979	0.777677	-54.4369	-192.556	-31.887	-59.5481	-168.206	-14.8414	-57.7125	-182.047	-3.87127	-26.7172	-176.697	-43.4991	-44.0979	-163.977	-22.0873	-40.3276	-174.235	-12.9001	-12.9505	-224.884	-48.592	-16.9761	-231.665	-40.4064	15.0079	-245.523	-16.447	-5.90895	
81	0.675	-228.051	18.5193	-3.50103	-206.966	23.4085	-32.0336	-189.767	17.1809	-57.1241	-171.59	0.604673	-65.174	-235.983	-22.0004	-67.0565	-225.412	-30.0653	-96.5759	-196.942	-11.1952	-101.355	-211.732	-32.0172	-76.1311	-185.144	-17.9044	-89.2916	-179.095	-3.13285	-52.8478	-190.604	-35.5216	-58.7273	-165.935	-18.9071	-56.889	-182.721	-4.86946	-26.585	-179.215	-40.5058	-44.9472	-163.3	-21.2594	-39.633	-175.15	-15.0044	-10.143	-223.698	-49.2526	-13.921	-228.08	-45.485	15.2667	-244.291	-18.6326	-7.30872	
82	0.683333	-228.888	15.4937	-4.73272	-208.629	21.5067	-29.2047	-188.851	13.9014	-57.0987	-173.064	-4.17969	-64.1657	-236.534	-24.8732	-67.9779	-224.555	-30.9691	-97.6978	-195.947	-14.4227	-99.7777	-211.675	-35.5961	-72.7787	-182.562	-20.1741	-87.2151	-180.447	-4.12947	-52.2001	-189.52	-36.9883	-60.1466	-165.24	-20.3649	-56.1315	-180.875	-5.29804	-29.1804	-180.352	-45.0556	-41.0467	-160.627	-23.7928	-38.7553	-173.551	-16.2953	-12.659	-225.028	-48.2955	-17.4402	-231.124	-44.713	14.7184	-245.451	-22.0797	-5.65353	
83	0.691667	-228.248	13.4243	-2.0527	-208.001	22.2912	-32.4344	-189.783	12.6946	-55.7133	-170.937	-4.67607	-65.0174	-235.517	-25.2415	-67.4729	-223.796	-33.7905	-98.0065	-197.519	-16.4225	-104.865	-207.508	-39.7087	-75.8892	-180.96	-25.044	-86.2641	-179.115	-6.28341	-54.3127	-189.744	-38.49	-59.2599	-164.743	-20.5944	-57.1223	-179.292	-8.89347	-26.5681	-177.011	-46.5027	-40.9283	-158.674	-26.1233	-37.0921	-176.204	-15.1492	-13.0698	-221.361	-51.3585	-15.6409	-227.357	-47.7503	16.0913	-245.041	-22.8382	-8.31551	
84	0.7	-229.512	12.9852	-7.29019	-207.873	20.525	-34.6732	-188.741	16.3268	-59.4283	-169.464	-2.77677	-64.7904	-235.074	-26.3433	-66.9091	-222.916	-35.5296	-99.8691	-202.075	-20.9466	-112.822	-206.619	-36.8013	-77.0009	-179.569	-25.7972	-87.2361	-179.52	-2.98899	-53.0291	-185.812	-39.3991	-59.3367	-164.26	-16.4236	-54.2347	-180.895	-7.43707	-26.7894	-176.634	-43.314	-43.3377	-158.113	-24.4363	-35.4725	-175.054	-13.8813	-12.748	-221.315	-53.991	-15.8288	-228.307	-46.0776	17.4424	-245.286	-22.9484	-9.21647	
85	0.708333	-228.257	14.3473	-4.95763	-206.253	18.1463	-32.4547	-186.539	12.889	-53.9044	-167.231	-3.88369	-63.1486	-232.233	-27.0247	-68.889	-227.624	-34.0155	-96.8047	-205.326	-25.5298	-118.303	-205.588	-36.8538	-74.3646	-176.662	-21.1345	-84.9896	-176.768	-3.31233	-52.6849	-182.561	-40.5333	-57.6789	-162.646	-16.6371	-53.8744	-179.379	-10.3186	-23.2634	-171.139	-45.8799	-42.0494	-157.781	-24.5993	-34.9651	-175.078	-16.3838	-6.7021	-219.977	-52.5311	-12.8694	-229.173	-46.2631	13.3505	-244.646	-21.4462	-6.82707	
86	0.716667	-225.115	13.4053	-2.57303	-201.803	20.2735	-30.6331	-181.388	16.8283	-51.7532	-161.532	-6.91198	-61.0594	-227.997	-22.5679	-67.9987	-227.971	-25.9152	-100.986	-207.987	-22.7696	-124.87	-200.62	-37.8457	-70.6954	-173.888	-23.8463	-83.8033	-172.497	-5.07009	-45.1717	-181.796	-38.212	-55.8843	-158.474	-19.1606	-46.8587	-174.266	-11.2199	-22.081	-174.006	-46.0372	-39.2828	-158.291	-23.8903	-32.6834	-171.152	-18.7591	-6.57184	-219.919	-50.5987	-11.5806	-231.395	-45.8773	11.9986	-244.374	-19.8968	-9.22184	
87	0.725	-219.939	16.6622	-1.26211	-194.207	22.8396	-27.8967	-174.348	11.781	-46.7691	-154.804	-4.34217	-57.0895	-223.468	-17.1763	-70.922	-221.053	-19.5424	-99.1055	-206.148	-17.0267	-125.338	-196.707	-32.4013	-73.8067	-167.233	-20.1557	-81.7307	-165.899	-4.57783	-46.504	-177.781	-41.0356	-53.2818	-154.269	-21.7861	-47.0143	-172.056	-11.1294	-19.391	-172.722	-47.9028	-36.5523	-152.401	-28.8696	-27.4334	-168.362	-21.1107	-4.84706	-221.27	-50.0353	-13.8402	-232.042	-44.6685	16.03	-241.083	-17.3027	-9.45822	
88	0.733333	-213.709	18.4669	-0.811664	-187.432	22.6228	-22.0821	-163.364	14.1883	-45.8828	-148.89	-9.29142	-50.1619	-213.758	-9.53642	-68.2728	-209.336	-8.02602	-101.749	-196.365	-9.3336	-122.016	-187.784	-31.3825	-72.1027	-157.514	-19.8974	-74.6459	-158.248	-3.42089	-41.9023	-174.402	-39.9787	-48.9849	-149.341	-23.7697	-43.4821	-163.848	-12.4211	-15.2197	-170.295	-48.1425	-35.0346	-149.814	-32.2813	-26.926	-162.701	-22.7744	-1.49497	-221.552	-44.1544	-14.4231	-231.917	-43.0105	12.675	-235.206	-11.699	-13.5602	
89	0.741667	-206.595	19.811	2.9628	-179.239	23.0573	-16.8306	-156.198	12.544	-36.7073	-140.873	-3.77956	-43.6493	-203.193	-1.43676	-68.2669	-194.348	2.03553	-98.2459	-179.915	6.72941	-121.059	-181.074	-25.2608	-70.03	-150.085	-14.004	-71.0042	-151.675	-3.8141	-33.9807	-168.748	-33.9919	-48.7737	-141.956	-23.7341	-36.5661	-158.226	-9.56347	-11.1347	-166.719	-49.8384	-30.1591	-145.565	-31.7393	-20.8697	-163.569	-18.2492	0.085344	-216.766	-42.2886	-14.8952	-230.747	-40.4508	12.1332	-231.474	-6.70622	-12.8821	
90	0.75	-200.934	25.3485	9.3049	-171.207	23.0371	-9.84826	-144.698	15.263	-31.2739	-133.863	-7.27015	-38.2819	-193.362	3.92492	-63.7567	-182.107	9.50674	-90.1563	-159.497	13.7957	-111.608	-176.959	-18.8161	-63.0725	-144.102	-14.1231	-67.4572	-146.605	-3.53134	-26.9634	-165.81	-30.7733	-44.319	-136.572	-22.3559	-30.6206	-156.807	-10.8495	-1.66712	-158.751	-47.0706	-27.7488	-141.828	-31.0708	-16.9731	-157.852	-18.3064	4.25286	-213.698	-32.7808	-15.3003	-226.233	-36.3719	10.4859	-227.69	0.12867	-10.0904	
91	0.758333	-193.025	27.4046	14.0375	-160.795	26.9353	-2.81648	-136.836	16.5684	-20.4844	-126.009	-4.66402	-29.5289	-179.248	14.6307	-63.1024	-163.08	17.0292	-83.4583	-138.526	21.5135	-97.4872	-170.186	-11.0185	-59.9001	-133.67	-9.08805	-58.749	-139.385	-4.20958	-20.8233	-154.586	-28.4679	-42.4591	-132	-25.4793	-24.3283	-150.015	-14.2893	2.69094	-160.304	-43.9264	-23.651	-138.594	-32.6383	-7.05121	-158.248	-19.8822	14.2996	-209.979	-28.3497	-16.2302	-225.349	-29.3505	8.47946	-217.846	3.95214	-7.93138	
92	0.766667	-185.138	27.8291	21.2718	-154.971	24.013	6.61041	-129.29	14.4656	-14.906	-121.866	-8.73396	-23.2091	-168.476	17.3679	-53.0452	-146.236	22.8608	-76.029	-121.283	23.0203	-82.0916	-161.714	-10.7505	-56.4254	-128.165	-10.9973	-54.8642	-131.951	-3.52682	-14.844	-150.649	-28.6502	-36.8258	-127.331	-25.3502	-16.7628	-143.986	-12.8778	6.96588	-153.459	-43.6345	-20.5386	-135.196	-32.4409	-2.04311	-157.379	-18.2255	16.8415	-204.875	-26.6707	-13.2454	-223.405	-22.7828	13.4025	-212.56	5.98935	-0.623455	
93	0.775	-179.484	27.7713	26.187	-146.801	24.6852	9.10794	-125.283	14.2257	-5.36168	-113.036	-7.1978	-17.6123	-160.607	24.889	-47.0118	-135.52	28.0687	-66.9353	-102.924	26.4861	-66.8119	-152.723	-3.6879	-55.4421	-121.772	-7.13222	-54.9999	-119.063	-7.32885	-15.0075	-142.745	-26.1586	-32.9974	-122.899	-24.573	-14.0655	-142.723	-9.6448	10.9972	-149.156	-37.8971	-18.7154	-131.708	-29.5817	2.50415	-155.526	-17.5526	20.1901	-200.843	-17.7488	-13.3698	-216.943	-17.1567	12.8311	-207.144	12.8247	0.566904	
94	0.783333	-177.277	27.4565	30.6066	-141.828	29.6548	14.8203	-120.143	14.9354	-6.52032	-116.596	-7.99415	-14.031	-149.486	28.4186	-44.2116	-123.901	26.3107	-59.3643	-95.3058	24.0912	-50.9268	-145.982	1.00776	-50.8626	-112.707	-3.54699	-50.0517	-102.687	-8.84313	-11.3806	-139.406	-21.7869	-29.7317	-118.145	-21.3512	-10.4472	-141.762	-11.6887	16.3111	-144.988	-35.5056	-15.2456	-128.939	-34.571	6.61871	-150.79	-18.2109	26.3332	-195.162	-13.6857	-8.87085	-215.119	-15.681	13.5133	-201.211	14.1237	3.81427	
95	0.791667	-171.744	29.1137	34.191	-138.949	30.1787	20.5683	-119.969	16.1321	-3.37163	-110.912	-5.93265	-12.826	-142.036	29.3291	-41.0704	-112.674	25.885	-52.0038	-86.172	17.9164	-34.6084	-141.061	0.565071	-46.67	-110.314	-2.00455	-48.6418	-94.9213	-9.84593	-10.5987	-135.666	-21.119	-26.8611	-115.657	-23.3455	-8.60642	-135.005	-13.2338	17.3516	-144.514	-37.9096	-13.0781	-126.626	-30.4546	12.0576	-147.024	-15.802	26.5099	-191.497	-12.4984	-10.9243	-209.833	-11.354	16.7657	-195.812	23.2298	6.07059	
96	0.8	-166.177	32.054	35.912	-135.808	29.9527	20.4004	-110.659	18.8177	-1.1987	-110.363	-6.31469	-10.6201	-137.868	32.678	-35.2709	-105.604	33.0894	-46.1548	-81.485	20.5849	-25.8574	-138.854	5.20189	-41.2984	-104.773	-1.6615	-44.3773	-91.0075	-6.20755	-10.2298	-131.451	-13.8109	-25.8561	-110.745	-18.8026	-3.51994	-133.153	-10.4624	19.0402	-136.823	-31.7715	-12.3252	-123.038	-27.482	11.4457	-144.229	-18.4953	29.2467	-187.422	-9.42172	-8.44833	-207.956	-10.3874	13.9887	-191.214	26.0077	11.7949	
97	0.808333	-163.649	33.061	38.6563	-130.469	32.1438	25.9057	-110.064	19.0152	7.74778	-104.341	-6.68027	-7.76447	-136.665	37.9319	-31.365	-100.758	36.6243	-42.827	-78.4423	26.133	-20.9033	-136.467	8.33789	-41.2599	-101.181	4.7841	-42.5723	-93.4713	0.78366	-5.29447	-128.502	-10.626	-24.1997	-109.119	-18.6961	-2.56585	-131.836	-8.99226	20.918	-134.666	-28.803	-12.1	-119.201	-23.9177	12.0148	-142.455	-15.0065	30.7847	-184.679	-2.70543	-7.8517	-205.616	-8.64307	19.363	-187.196	25.6684	9.5642	
98	0.816667	-160.859	37.8603	40.8826	-125.556	35.387	29.5269	-102.813	22.7429	6.793	-99.6792	0.18263	-5.23745	-134.837	38.6337	-30.8505	-100.748	40.1013	-42.228	-77.2802	31.0518	-25.427	-133.91	13.476	-40.915	-102.276	10.5457	-42.2713	-103.337	4.57332	0.330898	-126.875	-9.4372	-23.4568	-107.698	-16.4844	-3.97554	-127.63	-6.11847	20.7573	-133.537	-25.6425	-11.6176	-117.999	-21.6356	10.9251	-141.749	-12.9048	30.9136	-181.955	-2.2726	-7.06204	-203.6	-7.50208	19.767	-186.994	29.6637	15.4148	
99	0.825	-159.155	36.17	38.2203	-126.042	35.5663	26.0975	-102.518	28.3655	9.20205	-94.2712	7.4057	-6.17852	-133.861	43.7233	-32.3901	-106.326	47.3708	-44.734	-77.0456	37.3921	-30.8711	-134.683	17.3475	-40.1544	-100.522	13.5199	-37.5637	-107.704	9.16185	2.42851	-125.592	-6.66463	-24.4322	-106.417	-9.74721	-3.82795	-127.695	-0.797211	20.1794	-136	-20.6633	-13.741	-117.444	-20.7454	8.05458	-138.357	-11.4462	27.078	-184.345	-0.779541	-6.47647	-201.412	-2.99405	18.1418	-189.198	29.9569	14.8316	
100	0.833333	-160.117	36.1332	44.3038	-124.799	38.01	26.8743	-103.893	30.7005	8.41912	-92.7729	13.0706	-9.83632	-137.466	50.3969	-29.1383	-111.785	55.2539	-45.4233	-78.9563	45.0832	-40.358	-133.406	22.0743	-43.7735	-103.191	16.7327	-40.91	-108.228	12.3953	0.472099	-130.767	-0.844632	-26.1833	-107.601	-6.96693	-7.44763	-130.164	-0.700578	20.0228	-135.447	-21.7205	-14.7861	-118.936	-17.5648	6.71687	-140.332	-9.83766	27.6997	-184.579	3.07509	-6.51855	-203.014	0.824239	22.8074	-185.51	34.4455	17.4049	
101	0.841667	-156.104	38.8646	40.8694	-127.924	35.448	27.1427	-107.253	29.4108	5.31082	-96.5503	14.8643	-12.8311	-140.139	56.8145	-27.8065	-117.587	65.5747	-44.4398	-83.9376	56.5022	-50.4488	-138.797	27.9267	-40.6771	-105.523	18.0637	-40.5576	-110.198	8.80904	-5.26598	-132.276	3.08259	-28.7015	-111.127	-8.76972	-7.36955	-130.047	-1.97099	17.8698	-138.455	-17.988	-16.9272	-122.453	-15.849	4.37386	-144.987	-9.69224	27.8621	-187.489	8.40308	-5.87897	-201.819	1.95075	19.0689	-185.381	38.8885	15.7683	
